<svg height="512pt" viewBox="0 0 512.001 512" width="512pt" xmlns="http://www.w3.org/2000/svg"><path d="M316 376H196c-2.82 3.555-97.18 122.45-100 126h320c-2.82-3.555-97.18-122.445-100-126zm0 0" fill="#eafaff"/><path d="M402 376h-86c2.82 3.555 97.18 122.45 100 126h86c-2.82-3.555-97.18-122.445-100-126zm0 0" fill="#96c8ef"/><path d="M256 439c-.45-.703-124.746-195.656-124.809-195.758C115.281 219.422 106 190.79 106 160c0-82.84 67.16-150 150-150s150 67.16 150 150c0 30.79-9.281 59.422-25.191 83.242C380.746 243.34 256.437 438.312 256 439zm74.922-229.121C340.789 195.14 346 177.879 346 160c0-49.629-40.371-90-90-90s-90 40.371-90 90c0 17.879 5.21 35.14 15.09 49.898C197.87 235.012 225.86 250 256 250s58.129-14.988 74.922-40.121zm0 0" fill="#ff523d"/><path d="M110 376c-2.82 3.555-97.18 122.45-100 126h86c2.82-3.555 97.18-122.445 100-126zm0 0" fill="#96c8ef"/><path d="M316 260c-5.52 0-10 4.48-10 10s4.48 10 10 10 10-4.48 10-10-4.48-10-10-10zm0 0"/><path d="M102.168 369.785l-100 126a9.993 9.993 0 00-1.172 10.563A9.997 9.997 0 0010 512h492a9.997 9.997 0 009.004-5.652 9.985 9.985 0 00-1.172-10.563l-100-126A9.996 9.996 0 00402 366h-87.598l74.786-117.297C406.73 222.403 416 191.73 416 160 416 71.777 344.227 0 256 0S96 71.777 96 160c0 31.73 9.27 62.398 26.813 88.703L197.598 366H110c-3.05 0-5.934 1.395-7.832 3.785zM64.832 449h60.465l-34.125 43H30.703zm145.52-63l27.414 43h-71.063l34.129-43zm91.3 0h9.52l34.125 43h-71.059zm59.52 63l34.125 43H116.703l34.129-43zm59.66 43l-34.129-43h60.469l34.125 43zm10.465-63h-60.465l-34.129-43h60.469zm-291.79-191.313C124.13 214.665 116 187.802 116 160c0-77.195 62.805-140 140-140s140 62.805 140 140c0 27.8-8.129 54.664-23.504 77.688-.043.058-.078.117-.117.175C365.812 248.164 261.059 412.47 256 420.398a6717131.891 6717131.891 0 00-116.492-182.71zM175.298 386l-34.125 43H80.703l34.129-43zm0 0"/><path d="M256 260c54.898 0 100-44.457 100-100 0-55.14-44.86-100-100-100s-100 44.86-100 100c0 55.559 45.117 100 100 100zm0-180c44.113 0 80 35.887 80 80 0 44.523-36.176 80-80 80-43.836 0-80-35.477-80-80 0-44.113 35.887-80 80-80zm0 0M298.121 294.125c-4.726-2.852-10.875-1.328-13.726 3.402l-36.961 61.32c-2.852 4.731-1.329 10.876 3.402 13.727 4.75 2.864 10.887 1.309 13.727-3.402l36.96-61.32c2.852-4.73 1.329-10.875-3.402-13.727zm0 0"/></svg>