<svg xmlns="http://www.w3.org/2000/svg" viewBox="0 0 512 512"><path d="M501.315 34.048L314.101 169.395l-30.72 22.261c-16.273 12.021-38.489 12.021-54.762 0l-30.72-22.261L10.463 34.271a55.304 55.304 0 0145.19-23.151h400.696a55.588 55.588 0 0144.966 22.928z" fill="#ffd54f"/><g fill="#ffc107"><path d="M10.463 34.271L197.9 169.395 16.251 351.043A55.656 55.656 0 010 311.641V66.772C-.044 55.085 3.607 43.71 10.463 34.271zM512 66.772v244.87a55.661 55.661 0 01-16.25 39.402L314.101 169.395 501.315 34.048A55.376 55.376 0 01512 66.772z"/></g><path d="M333.913 411.815c-14.781 0-22.261-11.13-22.261-33.391.356-31.098-24.554-56.609-55.652-56.966s-56.609 24.554-56.966 55.652c-.356 31.098 24.554 56.609 55.652 56.966a56.303 56.303 0 0043.409-19.656c7.391 12.666 21.17 20.235 35.818 19.656 44.522 0 44.522-41.895 44.522-55.652 0-67.629-54.806-122.435-122.435-122.435s-122.435 54.806-122.435 122.413S188.372 500.837 256 500.837a122.474 122.474 0 0085.126-34.438c4.43-4.296 4.519-11.375.223-15.783-4.296-4.43-11.375-4.519-15.805-.223-39.825 38.4-103.246 37.265-141.646-2.56s-37.265-103.246 2.56-141.646 103.246-37.265 141.646 2.56a100.226 100.226 0 0128.071 69.654c-.001 24.978-5.61 33.414-22.262 33.414zm-77.913 0c-18.432 0-33.391-14.959-33.391-33.391s14.959-33.391 33.391-33.391 33.391 14.937 33.391 33.391c.001 18.454-14.959 33.391-33.391 33.391z" fill="#455a64"/><path d="M314.101 169.395l-30.72 22.261c-16.273 12.021-38.489 12.021-54.762 0l-30.72-22.261L16.251 351.043a55.657 55.657 0 0039.402 16.25h56.209c6.033-79.605 75.442-139.242 155.025-133.231 71.235 5.387 127.844 61.997 133.231 133.231h56.231a55.661 55.661 0 0039.402-16.25l-181.65-181.648z" fill="#ffa000"/><path d="M456.348 367.294h-44.522c-6.144 0-11.13-4.986-11.13-11.13s4.986-11.13 11.13-11.13h44.522c18.41 0 33.391-14.982 33.391-33.391V66.772c0-18.41-14.982-33.391-33.391-33.391H55.653c-18.41 0-33.391 14.959-33.391 33.391v244.87c0 18.41 14.982 33.391 33.391 33.391h44.522a11.12 11.12 0 0111.13 11.13 11.12 11.12 0 01-11.13 11.13H55.653C24.977 367.294 0 342.317 0 311.641V66.772C0 36.096 24.977 11.12 55.653 11.12h400.696C487.046 11.12 512 36.074 512 66.772v244.87c0 30.675-24.954 55.652-55.652 55.652z"/><path d="M256.023 211.801c-11.91 0-23.819-3.718-33.992-11.153L49.152 75.788a11.1 11.1 0 01-2.515-15.538c3.584-5.009 10.529-6.122 15.538-2.515L235.142 182.64c12.533 9.149 29.251 9.149 41.695.045l172.989-124.95c4.986-3.584 11.932-2.493 15.538 2.493s2.471 11.954-2.493 15.538L289.904 200.671c-10.107 7.413-21.994 11.13-33.881 11.13zM55.653 322.772a11.18 11.18 0 01-7.88-3.25c-4.341-4.341-4.341-11.398 0-15.738L159.077 192.48c4.341-4.341 11.398-4.341 15.738 0 4.341 4.341 4.341 11.398 0 15.738L63.511 319.522a11.093 11.093 0 01-7.858 3.25zM456.348 322.772a11.18 11.18 0 01-7.88-3.25L337.164 208.217c-4.341-4.341-4.341-11.398 0-15.738 4.341-4.341 11.398-4.341 15.738 0l111.304 111.304c4.341 4.341 4.341 11.398 0 15.738a11.087 11.087 0 01-7.858 3.251zM256.067 500.881c-.69 0-1.38 0-2.07-.022-32.701-.534-63.221-13.779-85.971-37.287-46.948-48.529-45.657-126.175 2.849-173.101 23.507-22.751 54.984-34.994 87.151-34.438 32.679.534 63.221 13.779 85.971 37.265 22.194 22.951 34.438 53.181 34.438 85.126 0 6.144-4.986 11.13-11.13 11.13s-11.13-4.986-11.13-11.13c0-26.134-10.017-50.866-28.205-69.654-18.61-19.211-43.587-30.052-70.344-30.497-26.223 0-52.068 9.594-71.302 28.205-39.691 38.4-40.737 101.933-2.315 141.624 18.61 19.233 43.587 30.074 70.344 30.497 26.847.935 52.046-9.572 71.302-28.182 4.408-4.252 11.464-4.163 15.738.267s4.163 11.464-.267 15.738c-22.996 22.26-53.114 34.459-85.059 34.459z"/><path d="M256 434.076c-30.675 0-55.652-24.977-55.652-55.652s24.977-55.652 55.652-55.652 55.652 24.954 55.652 55.652-24.976 55.652-55.652 55.652zm0-89.043c-18.41 0-33.391 14.982-33.391 33.391 0 18.41 14.982 33.391 33.391 33.391s33.391-14.982 33.391-33.391c.001-18.41-14.981-33.391-33.391-33.391z"/><path d="M333.913 434.076c-27.871 0-44.522-20.814-44.522-55.652 0-6.144 4.986-11.13 11.13-11.13a11.12 11.12 0 0111.13 11.13c0 22.15 7.502 33.391 22.261 33.391 16.651 0 22.261-8.437 22.261-33.391 0-6.144 4.986-11.13 11.13-11.13s11.13 4.964 11.13 11.13c.002 13.757.002 55.652-44.52 55.652z"/></svg>