<svg xmlns="http://www.w3.org/2000/svg" viewBox="0 0 512 512"><path d="M359.687 408.901l-47.517-47.517c-13.709-13.709-36.018-13.708-49.725 0l-20.876 20.876c-47.68-24.968-86.862-64.15-111.83-111.83l20.877-20.877c13.708-13.709 13.708-36.016 0-49.725L103.1 152.312c-13.709-13.709-36.016-13.709-49.725 0l-38.013 38.014C-4.5 210.187-5.121 245.2 13.613 288.913c16.888 39.406 47.884 82.803 87.277 122.196s82.79 70.389 122.196 87.277c21.187 9.08 40.328 13.613 56.692 13.613 17.399 0 31.66-5.126 41.895-15.361l38.013-38.013c6.642-6.641 10.299-15.471 10.299-24.863.001-9.39-3.657-18.22-10.298-24.861zM338.47 437.41l-38.013 38.013c-10.292 10.291-34.796 8.568-65.553-4.613-35.981-15.421-76.041-44.157-112.8-80.916-36.758-36.759-65.495-76.818-80.916-112.799-13.18-30.755-14.906-55.261-4.613-65.553l38.013-38.013a5.165 5.165 0 017.295 0l47.516 47.516a5.163 5.163 0 010 7.294l-35.985 35.986 4.526 9.554c29.056 61.34 78.84 111.125 140.181 140.181l9.554 4.525L283.66 382.6c1.314-1.314 2.85-1.511 3.647-1.511s2.332.196 3.646 1.51l47.516 47.516a5.137 5.137 0 011.511 3.647 5.127 5.127 0 01-1.51 3.648z"/><path d="M465.751 38.762C436.589 13.766 397.961 0 356.983 0c-40.977 0-79.606 13.766-108.768 38.762-29.823 25.563-46.248 59.746-46.248 96.252 0 36.506 16.425 70.688 46.248 96.252a153.164 153.164 0 0016.946 12.591 255.684 255.684 0 01-38.191 45.203 252.724 252.724 0 0088.404-23.927c13.386 3.224 27.355 4.895 41.609 4.895 40.978 0 79.606-13.766 108.768-38.762C495.575 205.704 512 171.52 512 135.014c0-36.506-16.425-70.688-46.249-96.252zM356.983 240.025c-68.932 0-125.013-47.108-125.013-105.011S288.051 30.003 356.983 30.003s125.013 47.108 125.013 105.011c.001 57.903-56.081 105.011-125.013 105.011z"/><circle cx="356.987" cy="135.014" r="20.002"/><circle cx="286.98" cy="135.014" r="20.002"/><circle cx="426.995" cy="135.014" r="20.002"/></svg>